<svg width="1000" height="169" viewBox="0 0 1000 169" fill="none" xmlns="http://www.w3.org/2000/svg">
<path d="M228.33 148.067L284.323 13.4799H286.221L342.408 148.067H316.59L309.192 128.893H261.933L254.903 148.067H228.33ZM282.056 74.4113L268.77 110.475H302.179L288.313 74.4113L285.097 63.7786L282.056 74.4113Z" fill="#3C486B"/>
<path d="M368.787 148.067L330.457 53.5325H357.03L373.357 100.791L377.522 116.362L381.318 100.791L397.083 53.5325H422.127L385.694 148.067H368.787Z" fill="#3C486B"/>
<path d="M467.68 150.914C456.995 150.914 449.766 148.125 445.993 142.548C442.232 136.983 440.351 128.571 440.351 117.311V73.4623H428.014V53.5326H441.301L442.636 33.6029L463.322 24.6925V53.5326H486.661V73.4623H463.322V116.749C463.322 122.244 464.095 126.052 465.641 128.172C467.188 130.293 469.326 131.353 472.056 131.353C474.833 131.353 477.774 130.627 480.879 129.174C483.972 127.721 486.409 126.233 488.19 124.71L492.742 143.884C490.773 145.278 488.225 146.497 485.097 147.54C481.968 148.582 478.805 149.403 475.606 150C472.408 150.609 469.766 150.914 467.68 150.914Z" fill="#3C486B"/>
<path d="M546.081 149.965C532.162 149.965 521.406 145.595 513.814 136.854C506.221 128.125 502.425 116.046 502.425 100.615C502.425 85.0439 506.344 72.9233 514.183 64.2531C522.033 55.5946 532.917 51.2654 546.837 51.2654C560.814 51.2654 571.459 55.7411 578.77 64.6924C586.081 73.6438 589.736 85.618 589.736 100.615C589.736 115.6 585.952 127.569 578.383 136.52C570.826 145.483 560.059 149.965 546.081 149.965ZM546.45 130.984C558.471 130.984 564.482 120.861 564.482 100.615C564.482 80.2402 558.471 70.0527 546.45 70.0527C540.51 70.0527 535.893 72.4077 532.601 77.1178C529.309 81.8278 527.663 89.6602 527.663 100.615C527.663 111.488 529.309 119.268 532.601 123.954C535.893 128.641 540.51 130.984 546.45 130.984Z" fill="#3C486B"/>
<path d="M636.608 149.771C629.719 149.771 624.071 149.121 619.666 147.821C615.272 146.52 611.857 145.032 609.42 143.357C606.983 141.681 605.29 140.275 604.341 139.139L611.371 121.107C614.148 123.38 617.704 125.624 622.039 127.838C626.374 130.053 631.424 131.16 637.188 131.16C641.675 131.16 644.821 130.246 646.626 128.418C648.43 126.579 649.332 124.587 649.332 122.443C649.332 119.467 647.276 116.778 643.163 114.376C639.051 111.962 634.271 109.59 628.822 107.258C625.6 105.864 622.185 104.089 618.576 101.933C614.968 99.7891 611.886 96.942 609.332 93.3919C606.766 89.8535 605.483 85.3017 605.483 79.7363C605.483 71.195 608.6 64.3761 614.833 59.2794C621.066 54.1827 629.906 51.6344 641.353 51.6344C648.699 51.6344 654.915 52.724 660 54.9033C665.097 57.0943 668.5 59.0451 670.211 60.7557L663.761 77.8383C661.289 75.9402 658.155 74.1359 654.359 72.4253C650.562 70.7147 646.479 69.8594 642.109 69.8594C637.305 69.8594 633.954 70.492 632.056 71.7574C630.158 73.0228 629.209 75.0498 629.209 77.8383C629.209 80.9314 630.902 83.4739 634.288 85.4657C637.674 87.4575 641.74 89.4024 646.485 91.3005C654.394 94.4053 660.767 98.2191 665.606 102.742C670.445 107.264 672.865 113.005 672.865 119.965C672.865 125.155 671.664 130.012 669.262 134.534C666.86 139.057 662.999 142.724 657.68 145.536C652.361 148.36 645.337 149.771 636.608 149.771Z" fill="#3C486B"/>
<path d="M724.499 150.914C713.802 150.914 706.573 148.125 702.812 142.548C699.039 136.983 697.153 128.571 697.153 117.311V73.4623H684.815V53.5326H698.102L699.438 33.6029L720.123 24.6925V53.5326H743.48V73.4623H720.123V116.749C720.123 122.244 720.896 126.052 722.443 128.172C724.001 130.293 726.139 131.353 728.858 131.353C731.646 131.353 734.587 130.627 737.68 129.174C740.785 127.721 743.222 126.233 744.991 124.71L749.543 143.884C747.586 145.278 745.038 146.497 741.898 147.54C738.77 148.582 735.606 149.403 732.408 150C729.221 150.609 726.585 150.914 724.499 150.914Z" fill="#3C486B"/>
<path d="M786.186 150.721C780.363 150.721 775.536 149.42 771.705 146.819C767.873 144.23 765.026 140.785 763.163 136.485C761.301 132.185 760.369 127.44 760.369 122.25C760.369 119.332 761.113 116.134 762.601 112.654C764.089 109.174 766.731 105.852 770.527 102.689C774.323 99.5255 779.666 96.9361 786.555 94.9209C793.456 92.894 802.314 91.8805 813.128 91.8805V87.5044C813.128 82.8295 812.004 78.9397 809.754 75.8348C807.516 72.7417 803.011 71.1951 796.239 71.1951C791.306 71.1951 786.479 72.0328 781.758 73.7083C777.047 75.3837 773.585 77.4517 771.371 79.9121L763.779 61.7047C767.575 59.1037 772.654 56.7135 779.016 54.5343C785.378 52.355 792.449 51.2654 800.228 51.2654C809.59 51.2654 816.866 52.6889 822.056 55.536C827.247 58.3831 830.885 62.4136 832.97 67.6274C835.056 72.853 836.098 78.9748 836.098 85.993V148.067H815.782L814.077 134.587C807.504 145.343 798.207 150.721 786.186 150.721ZM796.239 132.496C799.086 132.496 802.138 131.342 805.395 129.033C808.653 126.725 811.23 123.767 813.128 120.158V106.678C812.496 106.55 811.816 106.485 811.09 106.485H808.576C805.097 106.485 801.441 106.883 797.61 107.68C793.79 108.465 790.551 109.842 787.891 111.81C785.231 113.767 783.902 116.485 783.902 119.965C783.902 124.523 784.915 127.75 786.942 129.649C788.969 131.547 792.068 132.496 796.239 132.496Z" fill="#3C486B"/>
<path d="M857.258 148.067V53.5325H878.717L879.842 70.246C880.861 67.7739 882.431 65.1435 884.552 62.355C886.673 59.5782 889.613 57.2232 893.374 55.29C897.135 53.3567 901.992 52.3901 907.944 52.3901C909.772 52.3901 911.383 52.519 912.777 52.7768C914.171 53.0345 915.472 53.4153 916.678 53.9191L911.353 78.7873C909.326 76.7604 906.227 75.7469 902.056 75.7469C897.182 75.7469 893.199 76.7428 890.105 78.7346C887.001 80.7264 884.704 82.9584 883.216 85.4306C881.728 87.891 880.984 89.7891 880.984 91.1248V148.067H857.258Z" fill="#3C486B"/>
<path d="M963.269 150.914C952.572 150.914 945.343 148.125 941.582 142.548C937.821 136.983 935.94 128.571 935.94 117.311V73.4623H923.603V53.5326H936.889L938.207 33.6029L958.91 24.6925V53.5326H982.25V73.4623H958.91V116.749C958.91 122.244 959.684 126.052 961.23 128.172C962.777 130.293 964.909 131.353 967.627 131.353C970.416 131.353 973.363 130.627 976.468 129.174C979.561 127.721 981.992 126.233 983.761 124.71L988.33 143.884C986.362 145.278 983.814 146.497 980.685 147.54C977.557 148.582 974.394 149.403 971.195 150C967.997 150.609 965.354 150.914 963.269 150.914Z" fill="#3C486B"/>
<path d="M60.6502 121.354C68.3477 121.354 74.5877 115.114 74.5877 107.417C74.5877 99.7191 68.3477 93.4791 60.6502 93.4791C52.9528 93.4791 46.7128 99.7191 46.7128 107.417C46.7128 115.114 52.9528 121.354 60.6502 121.354Z" fill="#3C486B"/>
<path d="M68.6731 123.954L68.5887 123.786H52.6748L49.1002 124.207H48.5905C48.413 124.228 48.2548 124.271 48.0808 124.292L47.3181 124.38H47.2302C31.9226 126.539 30.5518 133.822 30.5518 133.822L30.3813 135.181V164.083H90.9719V135.184L90.8014 133.824C90.8014 133.822 89.1863 124.974 68.6731 123.954ZM142.54 123.954L142.455 123.786H126.543L122.968 124.207H122.459C122.281 124.228 122.123 124.271 121.945 124.292L121.181 124.38H121.1C105.793 126.539 104.416 133.822 104.416 133.822L104.251 135.181V164.083H164.837V135.184L164.668 133.824C164.663 133.822 163.049 124.974 142.54 123.954Z" fill="#3C486B"/>
<path d="M134.517 121.354C142.214 121.354 148.454 115.114 148.454 107.417C148.454 99.7191 142.214 93.4791 134.517 93.4791C126.819 93.4791 120.579 99.7191 120.579 107.417C120.579 115.114 126.819 121.354 134.517 121.354Z" fill="#3C486B"/>
<path d="M35.7118 54.3772C41.5458 54.3772 46.2752 49.6478 46.2752 43.8138C46.2752 37.9798 41.5458 33.2504 35.7118 33.2504C29.8778 33.2504 25.1484 37.9798 25.1484 43.8138C25.1484 49.6478 29.8778 54.3772 35.7118 54.3772Z" fill="#3C486B"/>
<path d="M83.4815 52.7224L112.162 21.819L88.4956 55.2883C88.9631 55.7803 89.3849 56.3217 89.7364 56.9315C90.5633 58.3943 90.9981 60.0459 90.9988 61.7263C90.9994 63.4066 90.5657 65.0586 89.7399 66.522C88.1564 69.2654 85.3567 70.8383 82.0597 70.8383H63.5096V91.1529C67.232 91.7898 70.6242 93.6816 73.1223 96.5138C75.6203 99.346 77.0737 102.948 77.2407 106.721H118.119C118.494 97.9332 125.738 90.9016 134.612 90.9016C135.443 90.9016 136.25 90.9807 137.046 91.1002V13.0756C137.037 10.1514 135.871 7.34954 133.804 5.28168C131.736 3.21381 128.935 2.04797 126.011 2.0387H74.5465C71.6221 2.0475 68.8199 3.21315 66.752 5.28106C64.6841 7.34898 63.5185 10.1511 63.5096 13.0756V52.6099L82.0386 52.6046C82.5307 52.6081 83.0123 52.6556 83.4815 52.7224Z" fill="#3C486B"/>
<path d="M34.4569 125.8V109.578H37.2653L37.26 124.371C39.7592 123.299 42.9191 122.378 46.949 121.812L47.8646 121.717C48.0755 121.675 48.2196 121.652 48.376 121.631L49.8453 121.501V119.814C48.0782 118.271 46.6612 116.369 45.6895 114.234C44.7177 112.099 44.2136 109.781 44.2108 107.436C44.2121 105.085 44.7162 102.762 45.6892 100.622C46.6622 98.4817 48.0816 96.5745 49.8523 95.0282L49.8611 72.2092V67.1635H82.0333C88.7873 67.1846 88.7873 56.7189 82.0386 56.7189H48.4709V56.7294H47.7592L23.1282 56.7189C15.181 56.7189 10.1968 63.2039 10.1968 71.2918V105.782C10.1968 112.483 19.0544 112.483 19.0544 105.782V72.2057H21.8716L21.8541 157.787C21.8575 159.405 22.4842 160.959 23.6039 162.127C24.7237 163.294 26.2503 163.985 27.8664 164.056L27.8839 134.87L28.0509 133.508C28.1862 132.787 29.1335 128.995 34.4569 125.8ZM93.6168 144.591H101.481V148.483H93.6168V144.591ZM167.821 144.591H175.685V148.483H167.821V144.591Z" fill="#3C486B"/>
<path d="M9.91387 144.59H19.051V148.483H9.91211L9.91387 144.59Z" fill="#3C486B"/>
</svg>
